<svg xmlns="http://www.w3.org/2000/svg" version="1.1" xmlns:xlink="http://www.w3.org/1999/xlink" xmlns:svgjs="http://svgjs.dev/svgjs" width="1440" height="560" preserveAspectRatio="none" viewBox="0 0 1440 560"><g mask="url(&quot;#SvgjsMask1014&quot;)" fill="none"><rect width="1440" height="560" x="0" y="0" fill="rgba(38, 38, 38, 1)"></rect><path d="M -147.26771148601742,360 C -89.67,325.6 25.53,164 140.73228851398258,188 C 255.93,212 313.53,499.2 428.73228851398255,480 C 543.93,460.8 601.53,105 716.7322885139826,92 C 831.93,79 889.53,404.6 1004.7322885139826,415 C 1119.93,425.4 1177.53,137.4 1292.7322885139827,144 C 1407.93,150.6 1551.28,461.4 1580.7322885139827,448 C 1610.19,434.6 1468.15,151.2 1440,77" stroke="rgba(222, 47, 138, 1)" stroke-width="2"></path><path d="M -534.5555492836356,105 C -476.96,151.4 -361.76,332.8 -246.55554928363557,337 C -131.36,341.2 -73.76,130 41.44445071636443,126 C 156.64,122 214.24,324.2 329.44445071636443,317 C 444.64,309.8 502.24,81.6 617.4444507163644,90 C 732.64,98.4 790.24,359.4 905.4444507163644,359 C 1020.64,358.6 1086.53,75 1193.4444507163644,88 C 1300.36,101 1390.69,356.8 1440,424" stroke="rgba(222, 47, 138, 1)" stroke-width="2"></path><path d="M -412.47961016201265,139 C -354.88,201 -239.68,462 -124.47961016201265,449 C -9.28,436 48.32,66 163.52038983798735,74 C 278.72,82 336.32,464 451.52038983798735,489 C 566.72,514 624.32,205.2 739.5203898379873,199 C 854.72,192.8 912.32,461.6 1027.5203898379873,458 C 1142.72,454.4 1233.02,181.8 1315.5203898379873,181 C 1398.02,180.2 1415.1,399.4 1440,454" stroke="rgba(222, 47, 138, 1)" stroke-width="2"></path><path d="M -206.88387474597351,194 C -149.28,236.4 -34.08,426 81.11612525402647,406 C 196.32,386 253.92,83 369.1161252540265,94 C 484.32,105 541.92,430 657.1161252540264,461 C 772.32,492 829.92,284 945.1161252540264,249 C 1060.32,214 1117.92,301.8 1233.1161252540264,286 C 1348.32,270.2 1479.74,131.4 1521.1161252540264,170 C 1562.49,208.6 1456.22,417.2 1440,479" stroke="rgba(222, 47, 138, 1)" stroke-width="2"></path><path d="M -213.41518749990024,389 C -155.82,334.8 -40.62,96 74.58481250009976,118 C 189.78,140 247.38,490.8 362.58481250009976,499 C 477.78,507.2 535.38,158.4 650.5848125000998,159 C 765.78,159.6 823.38,502.4 938.5848125000998,502 C 1053.78,501.6 1111.38,195.2 1226.5848125000998,157 C 1341.78,118.8 1471.9,325 1514.5848125000998,311 C 1557.27,297 1454.92,131.8 1440,87" stroke="rgba(222, 47, 138, 1)" stroke-width="2"></path><path d="M -55.326741364768054,422 C 2.27,371 117.47,189.2 232.67325863523195,167 C 347.87,144.8 405.47,303.4 520.673258635232,311 C 635.87,318.6 693.47,203.8 808.673258635232,205 C 923.87,206.2 981.47,310.2 1096.6732586352318,317 C 1211.87,323.8 1269.47,217.4 1384.6732586352318,239 C 1499.87,260.6 1661.61,433.6 1672.6732586352318,425 C 1683.74,416.4 1486.53,241.8 1440,196" stroke="rgba(222, 47, 138, 1)" stroke-width="2"></path><path d="M -7.430340506589573,267 C 50.17,269.8 165.37,320.6 280.5696594934104,281 C 395.77,241.4 453.37,25 568.5696594934104,69 C 683.77,113 741.37,475.8 856.5696594934104,501 C 971.77,526.2 1029.37,223.4 1144.5696594934104,195 C 1259.77,166.6 1317.37,343.6 1432.5696594934104,359 C 1547.77,374.4 1719.08,268.8 1720.5696594934104,272 C 1722.06,275.2 1496.11,354.4 1440,375" stroke="rgba(222, 47, 138, 1)" stroke-width="2"></path></g><defs><mask id="SvgjsMask1014"><rect width="1440" height="560" fill="#ffffff"></rect></mask></defs></svg>